<mxfile host="app.diagrams.net" modified="2020-11-05T12:10:32.686Z" agent="5.0 (X11)" etag="RH8XESLlmiRl9gbo6vuB" version="13.7.8" type="github">
  <diagram id="C5RBs43oDa-KdzZeNtuy" name="Page-1">
    <mxGraphModel dx="868" dy="458" grid="1" gridSize="10" guides="1" tooltips="1" connect="1" arrows="1" fold="1" page="1" pageScale="1" pageWidth="827" pageHeight="1169" math="0" shadow="0">
      <root>
        <mxCell id="WIyWlLk6GJQsqaUBKTNV-0" />
        <mxCell id="WIyWlLk6GJQsqaUBKTNV-1" parent="WIyWlLk6GJQsqaUBKTNV-0" />
        <mxCell id="xHAn_LQ4CoVWWevdMBBT-5" style="edgeStyle=orthogonalEdgeStyle;rounded=0;orthogonalLoop=1;jettySize=auto;html=1;exitX=1;exitY=0.5;exitDx=0;exitDy=0;entryX=0;entryY=0.5;entryDx=0;entryDy=0;" edge="1" parent="WIyWlLk6GJQsqaUBKTNV-1" source="xHAn_LQ4CoVWWevdMBBT-0" target="xHAn_LQ4CoVWWevdMBBT-1">
          <mxGeometry relative="1" as="geometry" />
        </mxCell>
        <mxCell id="xHAn_LQ4CoVWWevdMBBT-7" style="edgeStyle=orthogonalEdgeStyle;rounded=0;orthogonalLoop=1;jettySize=auto;html=1;" edge="1" parent="WIyWlLk6GJQsqaUBKTNV-1" source="xHAn_LQ4CoVWWevdMBBT-0" target="xHAn_LQ4CoVWWevdMBBT-2">
          <mxGeometry relative="1" as="geometry" />
        </mxCell>
        <mxCell id="xHAn_LQ4CoVWWevdMBBT-0" value="StartUI" style="ellipse;whiteSpace=wrap;html=1;aspect=fixed;" vertex="1" parent="WIyWlLk6GJQsqaUBKTNV-1">
          <mxGeometry x="140" y="90" width="80" height="80" as="geometry" />
        </mxCell>
        <mxCell id="xHAn_LQ4CoVWWevdMBBT-9" style="edgeStyle=orthogonalEdgeStyle;rounded=0;orthogonalLoop=1;jettySize=auto;html=1;exitX=0.5;exitY=1;exitDx=0;exitDy=0;entryX=0.5;entryY=0;entryDx=0;entryDy=0;" edge="1" parent="WIyWlLk6GJQsqaUBKTNV-1" source="xHAn_LQ4CoVWWevdMBBT-1" target="xHAn_LQ4CoVWWevdMBBT-3">
          <mxGeometry relative="1" as="geometry" />
        </mxCell>
        <mxCell id="xHAn_LQ4CoVWWevdMBBT-1" value="Tracker" style="ellipse;whiteSpace=wrap;html=1;aspect=fixed;" vertex="1" parent="WIyWlLk6GJQsqaUBKTNV-1">
          <mxGeometry x="290" y="90" width="80" height="80" as="geometry" />
        </mxCell>
        <mxCell id="xHAn_LQ4CoVWWevdMBBT-2" value="Scanner" style="ellipse;whiteSpace=wrap;html=1;aspect=fixed;" vertex="1" parent="WIyWlLk6GJQsqaUBKTNV-1">
          <mxGeometry x="140" y="260" width="80" height="80" as="geometry" />
        </mxCell>
        <mxCell id="xHAn_LQ4CoVWWevdMBBT-3" value="Item" style="ellipse;whiteSpace=wrap;html=1;aspect=fixed;" vertex="1" parent="WIyWlLk6GJQsqaUBKTNV-1">
          <mxGeometry x="290" y="260" width="80" height="80" as="geometry" />
        </mxCell>
      </root>
    </mxGraphModel>
  </diagram>
</mxfile>
